<svg xmlns="http://www.w3.org/2000/svg" style="display: none;">
  
  <!-- ============================================ -->
  <!-- NAVIGATION ICONS                            -->
  <!-- ============================================ -->
  
  <!-- Menu/Hamburger Icon -->
  <symbol id="icon-menu" viewBox="0 0 24 24">
    <path d="M3 6h18v2H3V6zm0 5h18v2H3v-2zm0 5h18v2H3v-2z" fill="currentColor"/>
  </symbol>
  
  <!-- Close Icon -->
  <symbol id="icon-close" viewBox="0 0 24 24">
    <path d="M19 6.41L17.59 5 12 10.59 6.41 5 5 6.41 10.59 12 5 17.59 6.41 19 12 13.41 17.59 19 19 17.59 13.41 12 19 6.41z" fill="currentColor"/>
  </symbol>
  
  <!-- Arrow Right -->
  <symbol id="icon-arrow-right" viewBox="0 0 24 24">
    <path d="M12 4l-1.41 1.41L16.17 11H4v2h12.17l-5.58 5.59L12 20l8-8-8-8z" fill="currentColor"/>
  </symbol>
  
  <!-- Arrow Left -->
  <symbol id="icon-arrow-left" viewBox="0 0 24 24">
    <path d="M20 11H7.83l5.59-5.59L12 4l-8 8 8 8 1.41-1.41L7.83 13H20v-2z" fill="currentColor"/>
  </symbol>
  
  <!-- Home Icon -->
  <symbol id="icon-home" viewBox="0 0 24 24">
    <path d="M10 20v-6h4v6h5v-8h3L12 3 2 12h3v8h5z" fill="currentColor"/>
  </symbol>
  
  <!-- ============================================ -->
  <!-- ACTION ICONS                                -->
  <!-- ============================================ -->
  
  <!-- Download Icon -->
  <symbol id="icon-download" viewBox="0 0 24 24">
    <path d="M19 9h-4V3H9v6H5l7 7 7-7zM5 18v2h14v-2H5z" fill="currentColor"/>
  </symbol>
  
  <!-- Upload Icon -->
  <symbol id="icon-upload" viewBox="0 0 24 24">
    <path d="M9 16h6v-6h4l-7-7-7 7h4v6zm-4 2h14v2H5v-2z" fill="currentColor"/>
  </symbol>
  
  <!-- External Link -->
  <symbol id="icon-external" viewBox="0 0 24 24">
    <path d="M19 19H5V5h7V3H5a2 2 0 0 0-2 2v14a2 2 0 0 0 2 2h14a2 2 0 0 0 2-2v-7h-2v7zM14 3v2h3.59l-9.83 9.83 1.41 1.41L19 6.41V10h2V3h-7z" fill="currentColor"/>
  </symbol>
  
  <!-- Search Icon -->
  <symbol id="icon-search" viewBox="0 0 24 24">
    <path d="M15.5 14h-.79l-.28-.27A6.471 6.471 0 0 0 16 9.5 6.5 6.5 0 1 0 9.5 16c1.61 0 3.09-.59 4.23-1.57l.27.28v.79l5 4.99L20.49 19l-4.99-5zm-6 0C11.01 14 13 12.01 13 9.5S11.01 5 9.5 5 6 6.99 6 9.5 7.99 14 9.5 14z" fill="currentColor"/>
  </symbol>
  
  <!-- ============================================ -->
  <!-- SOCIAL MEDIA ICONS                          -->
  <!-- ============================================ -->
  
  <!-- GitHub -->
  <symbol id="icon-github" viewBox="0 0 24 24">
    <path d="M12 0C5.37 0 0 5.37 0 12c0 5.3 3.438 9.8 8.205 11.385.6.113.82-.26.82-.58 0-.287-.01-1.05-.015-2.06-3.338.726-4.042-1.416-4.042-1.416-.546-1.387-1.333-1.756-1.333-1.756-1.09-.745.082-.73.082-.73 1.205.085 1.838 1.237 1.838 1.237 1.07 1.834 2.807 1.304 3.492.997.108-.775.418-1.305.762-1.605-2.665-.3-5.466-1.332-5.466-5.93 0-1.31.468-2.38 1.235-3.22-.123-.3-.535-1.52.117-3.16 0 0 1.008-.322 3.3 1.23.96-.267 1.98-.4 3-.405 1.02.005 2.04.138 3 .405 2.29-1.552 3.297-1.23 3.297-1.23.653 1.64.24 2.86.118 3.16.768.84 1.233 1.91 1.233 3.22 0 4.61-2.804 5.62-5.476 5.92.43.37.824 1.102.824 2.22 0 1.602-.015 2.894-.015 3.287 0 .322.216.698.83.578C20.565 21.795 24 17.295 24 12c0-6.63-5.37-12-12-12z" fill="currentColor"/>
  </symbol>
  
  <!-- Discord -->
  <symbol id="icon-discord" viewBox="0 0 24 24">
    <path d="M20.317 4.37a19.791 19.791 0 0 0-4.885-1.515a.074.074 0 0 0-.079.037c-.21.375-.444.864-.608 1.25a18.27 18.27 0 0 0-5.487 0c-.164-.386-.398-.875-.61-1.25a.077.077 0 0 0-.079-.037a19.736 19.736 0 0 0-4.885 1.515a.07.07 0 0 0-.032.027C.533 9.046-.32 13.58.099 18.057a.08.08 0 0 0 .031.057a19.9 19.9 0 0 0 5.993 3.03a.078.078 0 0 0 .084-.028a14.09 14.09 0 0 0 1.226-1.994a.076.076 0 0 0-.041-.106a13.107 13.107 0 0 1-1.872-.892a.077.077 0 0 1-.008-.128a10.2 10.2 0 0 0 .372-.292a.074.074 0 0 1 .077-.01c3.928 1.793 8.18 1.793 12.062 0a.074.074 0 0 1 .078.01c.12.098.246.198.373.292a.077.077 0 0 1-.006.127a12.299 12.299 0 0 1-1.873.892a.077.077 0 0 0-.041.107c.36.698.772 1.362 1.225 1.993a.076.076 0 0 0 .084.028a19.839 19.839 0 0 0 6.002-3.03a.077.077 0 0 0 .032-.054c.5-5.177-.838-9.674-3.549-13.66a.06.06 0 0 0-.031-.03zM8.02 15.33c-1.183 0-2.157-1.085-2.157-2.419c0-1.333.956-2.419 2.157-2.419c1.21 0 2.176 1.096 2.157 2.42c0 1.333-.956 2.418-2.157 2.418zm7.975 0c-1.183 0-2.157-1.085-2.157-2.419c0-1.333.955-2.419 2.157-2.419c1.21 0 2.176 1.096 2.157 2.42c0 1.333-.946 2.418-2.157 2.418z" fill="currentColor"/>
  </symbol>
  
  <!-- Twitter/X -->
  <symbol id="icon-twitter" viewBox="0 0 24 24">
    <path d="M18.244 2.25h3.308l-7.227 8.26 8.502 11.24H16.17l-5.214-6.817L4.99 21.75H1.68l7.73-8.835L1.254 2.25H8.08l4.713 6.231 5.45-6.231zm-1.161 17.52h1.833L7.084 4.126H5.117L17.083 19.77z" fill="currentColor"/>
  </symbol>
  
  <!-- Instagram -->
  <symbol id="icon-instagram" viewBox="0 0 24 24">
    <path d="M12 2.163c3.204 0 3.584.012 4.85.07 1.17.053 1.97.24 2.426.398a4.9 4.9 0 0 1 1.81 1.18 4.9 4.9 0 0 1 1.18 1.81c.158.456.345 1.256.398 2.426.058 1.266.07 1.646.07 4.85s-.012 3.584-.07 4.85c-.053 1.17-.24 1.97-.398 2.426a4.9 4.9 0 0 1-1.18 1.81 4.9 4.9 0 0 1-1.81 1.18c-.456.158-1.256.345-2.426.398-1.266.058-1.646.07-4.85.07s-3.584-.012-4.85-.07c-1.17-.053-1.97-.24-2.426-.398a4.9 4.9 0 0 1-1.81-1.18 4.9 4.9 0 0 1-1.18-1.81c-.158-.456-.345-1.256-.398-2.426C2.175 15.584 2.163 15.204 2.163 12s.012-3.584.07-4.85c.053-1.17.24-1.97.398-2.426a4.9 4.9 0 0 1 1.18-1.81 4.9 4.9 0 0 1 1.81-1.18c.456-.158 1.256-.345 2.426-.398 1.266-.058 1.646-.07 4.85-.07zm0-2.163c-3.259 0-3.667.014-4.947.072-1.28.058-2.15.262-2.915.558a5.9 5.9 0 0 0-2.17 1.41 5.9 5.9 0 0 0-1.41 2.17c-.296.765-.5 1.635-.558 2.915C.014 8.333 0 8.741 0 12s.014 3.667.072 4.947c.058 1.28.262 2.15.558 2.915a5.9 5.9 0 0 0 1.41 2.17 5.9 5.9 0 0 0 2.17 1.41c.765.296 1.635.5 2.915.558C8.333 23.986 8.741 24 12 24s3.667-.014 4.947-.072c1.28-.058 2.15-.262 2.915-.558a5.9 5.9 0 0 0 2.17-1.41 5.9 5.9 0 0 0 1.41-2.17c.296-.765.5-1.635.558-2.915.058-1.28.072-1.688.072-4.947s-.014-3.667-.072-4.947c-.058-1.28-.262-2.15-.558-2.915a5.9 5.9 0 0 0-1.41-2.17 5.9 5.9 0 0 0-2.17-1.41c-.765-.296-1.635-.5-2.915-.558C15.667.014 15.259 0 12 0z" fill="currentColor"/>
    <path d="M12 5.838a6.162 6.162 0 1 0 0 12.324 6.162 6.162 0 0 0 0-12.324zm0 10.162a4 4 0 1 1 0-8 4 4 0 0 1 0 8z" fill="currentColor"/>
    <circle cx="18.406" cy="5.594" r="1.44" fill="currentColor"/>
  </symbol>
  
  <!-- ============================================ -->
  <!-- STREET CULTURE ICONS                         -->
  <!-- ============================================ -->
  
  <!-- Spray Can -->
  <symbol id="icon-spray" viewBox="0 0 24 24">
    <path d="M10 4h4v2h-4V4zM8 3v4h8V3H8zm-3 7h14v2H5v-2zm0 4h14v2H5v-2zm2 4h10v2H7v-2zm12-15h-2v2h2V3zm0 4h-2v2h2V7z" fill="currentColor"/>
  </symbol>
  
  <!-- Skull -->
  <symbol id="icon-skull" viewBox="0 0 24 24">
    <path d="M12 2C6.48 2 2 6.48 2 12s4.48 10 10 10 10-4.48 10-10S17.52 2 12 2zm0 18c-4.41 0-8-3.59-8-8s3.59-8 8-8 8 3.59 8 8-3.59 8-8 8z" fill="currentColor"/>
    <circle cx="8.5" cy="10.5" r="1.5" fill="currentColor"/>
    <circle cx="15.5" cy="10.5" r="1.5" fill="currentColor"/>
    <path d="M12 15c-1.66 0-3 1.34-3 3h6c0-1.66-1.34-3-3-3z" fill="currentColor"/>
  </symbol>
  
  <!-- Bolt/Thunder -->
  <symbol id="icon-bolt" viewBox="0 0 24 24">
    <path d="M13 3h-2v10h2V3zm4.83 2.17l-1.42 1.42C17.99 7.86 19 9.81 19 12c0 3.87-3.13 7-7 7s-7-3.13-7-7c0-2.19 1.01-4.14 2.59-5.42L6.17 5.17C4.23 6.82 3 9.26 3 12c0 4.97 4.03 9 9 9s9-4.03 9-9c0-2.74-1.23-5.18-3.17-6.83zM11 15h2v-2h-2v2z" fill="currentColor"/>
  </symbol>
  
  <!-- Crown -->
  <symbol id="icon-crown" viewBox="0 0 24 24">
    <path d="M12 8l3 5.2 3-2.7-.7 3.5H6.7L6 10.5l3 2.7L12 8zm0-4L9 8 5 5 2 12h20l-3-7-4 3-3-4z" fill="currentColor"/>
  </symbol>

</svg>